<svg xmlns="http://www.w3.org/2000/svg" id="Layer_2" data-name="Layer 2" viewBox="0 0 227.93 62.01"><defs><style>      .cls-1 {        fill: #4c4c4d;      }      .cls-1, .cls-2, .cls-3 {        stroke-width: 0px;      }      .cls-2 {        fill: #4d4d4e;      }      .cls-3 {        fill: #9aa98e;      }    </style></defs><g id="Layer_5" data-name="Layer 5"><g id="couleur"><g><path class="cls-1" d="M79.88,19.72h-14.38c.28,1.24.97,2.26,2.07,3.05s2.34,1.18,3.73,1.18c2.43,0,5.12-.68,8.06-2.05v4.47c-1.06.55-2.34,1.05-3.84,1.49-1.5.45-3.42.67-5.75.67-2.51,0-4.65-.47-6.42-1.4-1.76-.94-3.08-2.21-3.96-3.81s-1.31-3.42-1.31-5.46.44-3.8,1.31-5.38c.88-1.58,2.2-2.83,3.96-3.73,1.77-.9,3.9-1.35,6.42-1.35,1.66,0,3.26.36,4.8,1.07,1.54.72,2.81,1.89,3.81,3.51,1,1.62,1.49,3.72,1.49,6.29v1.44ZM73.1,16.15c0-1.31-.32-2.36-.97-3.14-.65-.78-1.58-1.17-2.8-1.17s-2.18.4-2.92,1.19c-.74.8-1.11,1.84-1.11,3.12h7.8Z"></path><path class="cls-1" d="M103.27,28.18h-7.22v-11.01c0-1.12-.18-2.1-.55-2.94-.37-.84-1.17-1.25-2.42-1.25-.59,0-1.11.11-1.55.33-.45.22-.85.5-1.2.85s-.65.68-.89,1c-.24.32-.49.66-.74,1.02v11.99h-7.22V7.76h7.22v2.93c1.14-1.22,2.28-2.07,3.42-2.56,1.14-.49,2.42-.73,3.82-.73,4.89,0,7.34,2.93,7.34,8.79v11.99Z"></path><path class="cls-1" d="M126.07,7.76l-9.29,20.42h-5.33l-9.09-20.42h7.76l4.23,10.69,4.69-10.69h7.02Z"></path><path class="cls-1" d="M133.79,28.18h-7.24V7.76h7.24v20.42ZM133.21,3.05c0,.84-.3,1.56-.9,2.15-.6.59-1.32.88-2.15.88-.56,0-1.07-.13-1.53-.4-.46-.27-.83-.63-1.09-1.09s-.4-.97-.4-1.53c0-.83.29-1.54.88-2.15.59-.6,1.3-.9,2.15-.9s1.54.3,2.15.9.9,1.32.9,2.15Z"></path><path class="cls-1" d="M154.4,8.87l-2.67,7.24c-1.1-1.04-2.21-1.56-3.33-1.56-1.02,0-1.89.34-2.64,1.03s-1.45,1.96-2.14,3.82v8.79h-7.22V7.76h7.22v4.93c.46-1.22,1.26-2.4,2.41-3.56,1.15-1.16,2.5-1.74,4.05-1.74.82,0,1.53.12,2.14.36.61.24,1.33.61,2.18,1.1Z"></path><path class="cls-1" d="M176.46,17.95c0,2.03-.44,3.84-1.32,5.44-.88,1.59-2.2,2.85-3.96,3.77-1.76.92-3.9,1.38-6.43,1.38s-4.67-.46-6.43-1.38c-1.76-.92-3.08-2.18-3.95-3.77-.88-1.59-1.31-3.4-1.31-5.44,0-1.54.24-2.93.73-4.19s1.23-2.37,2.23-3.34c1-.97,2.22-1.71,3.68-2.24,1.46-.52,3.14-.78,5.05-.78s3.63.26,5.1.79,2.7,1.27,3.67,2.22c.97.95,1.7,2.06,2.2,3.33.49,1.27.74,2.67.74,4.21ZM168.86,17.95c0-1.62-.35-2.88-1.05-3.8-.7-.92-1.72-1.37-3.06-1.37s-2.34.46-3.04,1.37c-.7.92-1.05,2.18-1.05,3.8s.35,2.88,1.06,3.81c.71.94,1.72,1.4,3.03,1.4s2.36-.46,3.06-1.39c.7-.93,1.05-2.2,1.05-3.82Z"></path><path class="cls-1" d="M21.74,37.3c0,.4-.07,1.16-.2,2.27l-1.83,12.31h-6.64l1.84-12.74c.03-.16.04-.39.04-.7,0-1.28-.56-1.93-1.68-1.93-.7,0-1.37.23-2.04.68-.66.46-1.57,1.23-2.74,2.33l-1.81,12.35H0l3.05-20.42h6.66l-.34,2.39c1.23-.88,2.31-1.56,3.24-2.04.93-.47,2.08-.71,3.46-.71,2.09,0,3.55.65,4.4,1.94.85,1.29,1.27,2.71,1.27,4.26Z"></path><path class="cls-1" d="M45.16,31.74l-3.09,20.14h-6.64l.32-1.84c-.78.68-1.53,1.22-2.26,1.61-.73.39-1.66.59-2.8.59-1.44,0-2.72-.4-3.83-1.21-1.11-.81-1.97-1.89-2.57-3.24s-.9-2.82-.9-4.41c0-1.32.22-2.68.65-4.06s1.21-2.71,2.33-3.97c1.12-1.26,2.69-2.29,4.72-3.07s4.54-1.17,7.52-1.17c1.26,0,2.29.05,3.09.14.8.09,1.95.26,3.45.5ZM37.94,36.01h-1.24c-1.2,0-2.3.34-3.3,1.02s-1.78,1.6-2.34,2.77c-.56,1.16-.84,2.42-.84,3.77,0,.92.23,1.71.7,2.36s1.14.97,2.01.97c.43,0,.91-.11,1.45-.33.54-.22,1.23-.6,2.08-1.15l1.48-9.41Z"></path><path class="cls-1" d="M55.99,31.46l-2.91,20.42h-6.78l2.91-20.42h6.78ZM56.37,26.79c0,.84-.3,1.56-.9,2.17-.6.6-1.33.9-2.19.9s-1.57-.3-2.18-.91-.91-1.33-.91-2.16.3-1.57.91-2.18,1.33-.91,2.18-.91c.54,0,1.04.14,1.52.42.48.28.86.66,1.14,1.14.28.48.42.99.42,1.52Z"></path><path class="cls-1" d="M72.2,32.98l-.5,4.81c-.99-.5-2.08-.94-3.28-1.34-1.2-.4-2.14-.6-2.84-.6-.91,0-1.36.31-1.36.94,0,.36.14.69.41.98.27.29.73.67,1.37,1.11.64.45,1.22.89,1.72,1.31,1.35,1.12,2.26,2.13,2.72,3.03.46.9.69,1.74.69,2.53,0,1-.29,2.01-.88,3.02-.59,1.01-1.48,1.84-2.68,2.49-1.2.65-2.66.97-4.38.97-.68,0-1.65-.12-2.92-.37s-2.58-.73-3.94-1.43l.86-4.67c1.48.6,2.63,1.04,3.43,1.31.8.27,1.66.41,2.57.41.55,0,.97-.13,1.27-.38.3-.25.45-.54.45-.86,0-.4-.21-.79-.63-1.17-.42-.38-1.25-1.03-2.48-1.94-1.12-.86-2.06-1.75-2.82-2.7-.76-.94-1.13-2-1.13-3.18,0-1.62.66-3.05,1.98-4.29s3.23-1.87,5.75-1.87c1.34,0,2.5.16,3.48.49.98.33,2.03.79,3.14,1.39Z"></path><path class="cls-1" d="M88.16,32.98l-.5,4.81c-.99-.5-2.08-.94-3.28-1.34-1.2-.4-2.14-.6-2.84-.6-.91,0-1.36.31-1.36.94,0,.36.14.69.41.98.27.29.73.67,1.37,1.11.64.45,1.22.89,1.72,1.31,1.35,1.12,2.26,2.13,2.72,3.03.46.9.69,1.74.69,2.53,0,1-.29,2.01-.88,3.02-.59,1.01-1.48,1.84-2.68,2.49-1.2.65-2.66.97-4.38.97-.68,0-1.65-.12-2.92-.37s-2.58-.73-3.94-1.43l.86-4.67c1.48.6,2.63,1.04,3.43,1.31.8.27,1.66.41,2.57.41.55,0,.97-.13,1.27-.38.3-.25.45-.54.45-.86,0-.4-.21-.79-.63-1.17-.42-.38-1.25-1.03-2.48-1.94-1.12-.86-2.06-1.75-2.82-2.7-.76-.94-1.13-2-1.13-3.18,0-1.62.66-3.05,1.98-4.29s3.23-1.87,5.75-1.87c1.34,0,2.5.16,3.48.49.98.33,2.03.79,3.14,1.39Z"></path><path class="cls-1" d="M110.68,31.74l-3.09,20.14h-6.64l.32-1.84c-.78.68-1.53,1.22-2.26,1.61-.73.39-1.66.59-2.8.59-1.44,0-2.72-.4-3.83-1.21-1.11-.81-1.97-1.89-2.57-3.24s-.9-2.82-.9-4.41c0-1.32.22-2.68.65-4.06s1.21-2.71,2.33-3.97c1.12-1.26,2.69-2.29,4.72-3.07s4.54-1.17,7.52-1.17c1.26,0,2.29.05,3.09.14.8.09,1.95.26,3.45.5ZM103.46,36.01h-1.24c-1.2,0-2.3.34-3.3,1.02s-1.78,1.6-2.34,2.77c-.56,1.16-.84,2.42-.84,3.77,0,.92.23,1.71.7,2.36s1.14.97,2.01.97c.43,0,.91-.11,1.45-.33.54-.22,1.23-.6,2.08-1.15l1.48-9.41Z"></path><path class="cls-1" d="M133.39,37.3c0,.4-.07,1.16-.2,2.27l-1.83,12.31h-6.64l1.84-12.74c.03-.16.04-.39.04-.7,0-1.28-.56-1.93-1.68-1.93-.7,0-1.37.23-2.04.68-.66.46-1.57,1.23-2.74,2.33l-1.81,12.35h-6.7l3.05-20.42h6.66l-.34,2.39c1.23-.88,2.31-1.56,3.24-2.04.93-.47,2.08-.71,3.46-.71,2.09,0,3.55.65,4.4,1.94.85,1.29,1.27,2.71,1.27,4.26Z"></path><path class="cls-1" d="M154.26,31.84l-.9,6.32c-1.31-.43-2.13-.67-2.47-.74-.76-.19-1.56-.28-2.39-.28-1.54,0-2.79.29-3.77.88-.98.59-1.69,1.31-2.13,2.16-.44.85-.66,1.62-.66,2.3,0,.9.31,1.76.92,2.61.61.84,1.85,1.26,3.71,1.26.95,0,1.89-.13,2.83-.4.94-.27,2.19-.77,3.75-1.5l-1.06,6.86c-.84.27-1.52.46-2.04.58s-1.08.21-1.68.27c-.61.06-1.23.09-1.88.09-4.39,0-7.38-1.05-8.98-3.16-1.6-2.11-2.4-4.33-2.4-6.69,0-1.5.39-3.11,1.16-4.84s2.14-3.24,4.08-4.52c1.95-1.28,4.56-1.93,7.85-1.93,1.89,0,3.9.25,6.04.74Z"></path></g><path class="cls-1" d="M161.32,43.41h12.92c.19-1.03.28-2.03.28-2.99,0-2.05-.39-3.77-1.18-5.17-.79-1.4-1.84-2.45-3.16-3.13-1.32-.68-2.77-1.02-4.36-1.02-2.13,0-4.03.52-5.73,1.57-1.69,1.05-3.02,2.47-3.97,4.25s-1.43,3.73-1.43,5.83c0,1.4.29,2.82.86,4.25.57,1.43,1.66,2.66,3.25,3.69,7.79,4,17.61.71,22.67-7.37-.03-.45-.83.2-1.11.38-4.18,3.49-9.09,6.29-14.81,5.6-3.33-.46-4.23-3.08-4.23-5.9ZM163.42,36.83c.55-.76,1.31-1.13,2.28-1.13,1.59,0,2.39,1.15,2.39,3.45,0,.17,0,.3,0,.39s0,.18,0,.27h-6.2c.48-1.23,1-2.22,1.55-2.98Z"></path><g><path class="cls-2" d="M2.08,57.93H.58v.95h1.45v.54H.58v1.18h1.49v.54H.01v-3.75h2.07v.54Z"></path><path class="cls-2" d="M4.72,61.14v-4l2.72,2.85v-2.59h.57v3.98l-2.72-2.85v2.62h-.57Z"></path><path class="cls-2" d="M10.98,57.39l1.04,2.61,1.04-2.61h.62l-1.66,3.99-1.66-3.99h.62Z"></path><path class="cls-2" d="M16.62,57.39v3.75h-.57v-3.75h.57Z"></path><path class="cls-2" d="M20.07,57.39c.46,0,.75.06.99.22.41.28.44.72.44.88,0,.54-.33.93-.83,1.04l1.17,1.6h-.69l-1.07-1.53h-.1v1.53h-.57v-3.75h.67ZM19.97,59.11h.18c.16,0,.8-.02.8-.61,0-.53-.5-.58-.78-.58h-.2v1.19Z"></path><path class="cls-2" d="M27.87,59.27c0,1.1-.83,1.94-1.95,1.94s-1.95-.84-1.95-1.94.83-1.94,1.95-1.94,1.95.84,1.95,1.94ZM27.3,59.27c0-.83-.57-1.42-1.38-1.42s-1.38.58-1.38,1.42.57,1.42,1.38,1.42,1.38-.58,1.38-1.42Z"></path><path class="cls-2" d="M30.46,61.14v-4l2.72,2.85v-2.59h.57v3.98l-2.72-2.85v2.62h-.57Z"></path><path class="cls-2" d="M36.54,61.14v-4l2.72,2.85v-2.59h.57v3.98l-2.72-2.85v2.62h-.57Z"></path><path class="cls-2" d="M44.69,57.93h-1.49v.95h1.45v.54h-1.45v1.18h1.49v.54h-2.07v-3.75h2.07v.54Z"></path><path class="cls-2" d="M47.13,61.14l.79-4.03,1.3,2.91,1.31-2.91.71,4.03h-.58l-.38-2.26-1.09,2.43-1.08-2.44-.39,2.26h-.58Z"></path><path class="cls-2" d="M55.91,57.93h-1.49v.95h1.45v.54h-1.45v1.18h1.49v.54h-2.07v-3.75h2.07v.54Z"></path><path class="cls-2" d="M58.55,61.14v-4l2.72,2.85v-2.59h.57v3.98l-2.72-2.85v2.62h-.57Z"></path><path class="cls-2" d="M65.65,57.93v3.21h-.57v-3.21h-.86v-.54h2.29v.54h-.86Z"></path><path class="cls-2" d="M68.85,60.44l.49.19-.7,1.39-.37-.15.57-1.43Z"></path><path class="cls-2" d="M76.8,58.22c-.03-.08-.08-.16-.17-.24-.12-.1-.24-.13-.4-.13-.35,0-.53.21-.53.45,0,.11.04.31.4.46l.38.15c.69.28.88.67.88,1.1,0,.71-.51,1.2-1.21,1.2-.43,0-.69-.16-.88-.38-.2-.22-.29-.47-.31-.73l.57-.12c0,.19.07.36.16.48.11.13.26.22.49.22.35,0,.62-.25.62-.63s-.29-.54-.54-.64l-.36-.15c-.31-.13-.76-.39-.76-.95,0-.51.39-.99,1.09-.99.4,0,.63.15.75.25.1.09.21.22.29.38l-.46.27Z"></path><path class="cls-2" d="M83.62,59.27c0,1.1-.83,1.94-1.95,1.94s-1.95-.84-1.95-1.94.83-1.94,1.95-1.94,1.95.84,1.95,1.94ZM83.05,59.27c0-.83-.57-1.42-1.38-1.42s-1.38.58-1.38,1.42.57,1.42,1.38,1.42,1.38-.58,1.38-1.42Z"></path><path class="cls-2" d="M88.97,58.27c-.42-.38-.8-.42-1.02-.42-.81,0-1.37.6-1.37,1.43s.57,1.4,1.37,1.4c.45,0,.8-.23,1.01-.43v.68c-.38.22-.77.28-1.03.28-.68,0-1.11-.31-1.33-.52-.44-.41-.6-.89-.6-1.42,0-.69.29-1.17.6-1.47.39-.37.84-.49,1.35-.49.34,0,.67.06,1,.27v.67Z"></path><path class="cls-2" d="M92.18,57.39v3.75h-.57v-3.75h.57Z"></path><path class="cls-2" d="M97.15,60.23h-1.6l-.41.9h-.62l1.86-3.96,1.77,3.96h-.62l-.39-.9ZM96.92,59.69l-.56-1.27-.58,1.27h1.13Z"></path><path class="cls-2" d="M101.09,57.39v3.21h1.1v.54h-1.67v-3.75h.57Z"></path><path class="cls-2" d="M110.38,59.76l-.44.51.69.86h-.7l-.37-.46c-.08.09-.2.19-.31.27-.23.16-.47.26-.82.26-.7,0-1.12-.47-1.12-1.07,0-.49.25-.75.54-.97.1-.07.26-.19.3-.21-.13-.13-.37-.42-.37-.78,0-.43.27-.86.89-.86s.9.41.9.81c0,.24-.09.4-.16.49-.09.12-.22.25-.47.43l.66.81.43-.48.36.38ZM108.48,59.37c-.12.07-.3.19-.41.31-.16.17-.2.34-.2.48,0,.3.23.57.58.57.16,0,.29-.06.42-.15.12-.08.28-.24.35-.31l-.74-.9ZM108.8,58.5c.13-.1.22-.23.22-.37,0-.16-.11-.34-.37-.34-.23,0-.36.14-.36.33,0,.13.07.25.13.33l.17.2.21-.15Z"></path><path class="cls-2" d="M117.73,59.19h1.54v.03c0,.64-.19,1.16-.56,1.52-.39.38-.85.48-1.28.48-.54,0-.93-.16-1.27-.51-.36-.38-.56-.88-.56-1.42,0-.58.24-1.09.54-1.4.32-.33.83-.56,1.41-.56.34,0,.68.07.98.24.31.17.5.39.61.56l-.45.32c-.11-.16-.28-.33-.46-.43-.21-.12-.43-.16-.66-.16-.49,0-.8.2-.99.39-.25.25-.4.65-.4,1.05,0,.38.14.75.39,1.02.26.28.58.38.94.38.33,0,.59-.1.84-.33.21-.2.29-.42.31-.63h-.93v-.53Z"></path><path class="cls-2" d="M125.57,59.27c0,1.1-.83,1.94-1.95,1.94s-1.95-.84-1.95-1.94.83-1.94,1.95-1.94,1.95.84,1.95,1.94ZM124.99,59.27c0-.83-.57-1.42-1.38-1.42s-1.38.58-1.38,1.42.57,1.42,1.38,1.42,1.38-.58,1.38-1.42Z"></path><path class="cls-2" d="M128.71,57.39v2.26c0,.2,0,.45.12.65.11.19.37.39.7.39s.58-.2.7-.39c.11-.2.12-.44.12-.65v-2.26h.57v2.41c0,.3-.06.66-.35.97-.2.21-.53.44-1.04.44s-.84-.22-1.04-.44c-.29-.31-.35-.67-.35-.97v-2.41h.57Z"></path><path class="cls-2" d="M133.89,57.39l1.04,2.61,1.04-2.61h.62l-1.66,3.99-1.66-3.99h.62Z"></path><path class="cls-2" d="M141.01,57.93h-1.49v.95h1.45v.54h-1.45v1.18h1.49v.54h-2.07v-3.75h2.07v.54Z"></path><path class="cls-2" d="M144.32,57.39c.46,0,.75.06.99.22.41.28.44.72.44.88,0,.54-.33.93-.83,1.04l1.17,1.6h-.69l-1.07-1.53h-.1v1.53h-.57v-3.75h.67ZM144.23,59.11h.18c.16,0,.8-.02.8-.61,0-.53-.5-.58-.78-.58h-.2v1.19Z"></path><path class="cls-2" d="M148.5,61.14v-4l2.72,2.85v-2.59h.57v3.98l-2.72-2.85v2.62h-.57Z"></path><path class="cls-2" d="M156.77,60.23h-1.6l-.41.9h-.62l1.86-3.96,1.77,3.96h-.62l-.39-.9ZM156.54,59.69l-.56-1.27-.58,1.27h1.13Z"></path><path class="cls-2" d="M160.14,61.14v-4l2.72,2.85v-2.59h.57v3.98l-2.72-2.85v2.62h-.57Z"></path><path class="cls-2" d="M168.99,58.27c-.42-.38-.8-.42-1.02-.42-.81,0-1.36.6-1.36,1.43s.57,1.4,1.37,1.4c.45,0,.8-.23,1.01-.43v.68c-.38.22-.77.28-1.03.28-.68,0-1.11-.31-1.33-.52-.44-.41-.6-.89-.6-1.42,0-.69.29-1.17.6-1.47.39-.37.84-.49,1.35-.49.34,0,.67.06,1,.27v.67Z"></path><path class="cls-2" d="M173.68,57.93h-1.49v.95h1.45v.54h-1.45v1.18h1.49v.54h-2.07v-3.75h2.07v.54Z"></path></g><path class="cls-3" d="M193.19,16.16c-2.93,1.28-5.2,2.96-6.63,4.71-3.3,4.06-4.61,8.71-5.05,12.57-.38,3.28-.14,6.01.04,7.36.05.35.49.48.72.21.82-.96,2.54-2.81,5.16-4.98.07-.06.12-.14.15-.23.85-3.74.84-8.09.33-12.8.63,3.99.96,7.8.68,11.23-.03.36.37.59.66.37,1.84-1.4,4.03-2.87,6.56-4.3.09-.05.16-.14.2-.24,1.19-3.68,1.59-8.05,1.53-12.81.26,4.17.22,8.11-.43,11.6-.06.34.28.6.59.44,2.2-1.13,4.63-2.21,7.29-3.16.12-.04.21-.13.25-.24,1.04-2.69,1.51-5.91,1.66-9.45.02,3.13-.18,6.08-.81,8.66-.08.32.21.59.52.49,4.82-1.57,10.34-2.73,16.61-3.08-4.49.28-8.69,1.17-12.57,2.44-.32.11-.38.53-.1.73,2.08,1.52,4.06,3.59,5.99,5.94-2.35-2.59-4.74-4.73-7.23-6.07-.11-.06-.24-.07-.35-.02-2.28.83-4.44,1.78-6.46,2.8-.3.15-.3.56,0,.73,3.51,1.97,6.96,4.83,10.39,8.12-3.96-3.45-7.92-6.23-11.87-7.89-.12-.05-.26-.04-.37.02-3.2,1.76-6.03,3.67-8.43,5.49-.26.2-.19.6.12.71,4.54,1.66,9.18,4.5,13.85,7.9-5.28-3.46-10.44-6.1-15.39-7.29-.13-.03-.27,0-.37.09-3.88,3.15-6.38,5.85-7.2,6.78-.17.19-.13.47.08.61,2.2,1.49,13.65,8.59,24.72,3.18,12.01-5.86,8.72-20.74,19.61-23.88.34-.1.43-.54.14-.75-13.68-9.9-26.56-9.5-34.57-6.01Z"></path></g></g></svg>